<?xml version="1.0" encoding="utf-8"?>
<!-- Generator: Adobe Illustrator 19.0.0, SVG Export Plug-In . SVG Version: 6.00 Build 0)  -->
<svg version="1.1" id="Layer_1" xmlns="http://www.w3.org/2000/svg" xmlns:xlink="http://www.w3.org/1999/xlink" x="0px" y="0px"
	 viewBox="0 0 141.7 141.7" style="enable-background:new 0 0 141.7 141.7;" xml:space="preserve">
<style type="text/css">
	.st0{fill:#FFFFFF;}
</style>
<g id="XMLID_21_">
	<path id="XMLID_1_" class="st0" d="M117.1,128.7H23.7c-6.6,0-12-5.4-12-12V25c0-6.6,5.4-12,12-12h93.3c6.6,0,12,5.4,12,12v91.7
		C129.1,123.3,123.7,128.7,117.1,128.7z"/>
	<path id="XMLID_18_" d="M115.9,129.3h-91c-7.6,0-13.7-6.2-13.7-13.7V26.2c0-7.6,6.2-13.7,13.7-13.7h91c7.6,0,13.7,6.2,13.7,13.7
		v89.3C129.6,123.1,123.5,129.3,115.9,129.3z M24.9,13.6c-7,0-12.6,5.7-12.6,12.6v89.3c0,7,5.7,12.6,12.6,12.6h91
		c7,0,12.6-5.7,12.6-12.6V26.2c0-7-5.7-12.6-12.6-12.6H24.9z"/>
</g>
<g id="XMLID_17_">
	<path id="XMLID_13_" d="M106.8,119H34c-6.6,0-12-5.4-12-12V34.4c0-6.6,5.4-12,12-12h72.8c6.6,0,12,5.4,12,12V107
		C118.8,113.6,113.4,119,106.8,119z"/>
	<path id="XMLID_14_" d="M106.8,119.5H34c-6.9,0-12.5-5.6-12.5-12.5V34.4c0-6.9,5.6-12.5,12.5-12.5h72.8c6.9,0,12.5,5.6,12.5,12.5
		V107C119.3,113.9,113.7,119.5,106.8,119.5z M34,22.9c-6.3,0-11.5,5.2-11.5,11.5V107c0,6.3,5.2,11.5,11.5,11.5h72.8
		c6.3,0,11.5-5.2,11.5-11.5V34.4c0-6.3-5.2-11.5-11.5-11.5H34z"/>
</g>
<g id="XMLID_12_">
	<path id="XMLID_8_" class="st0" d="M108.9,34.7v71.4c0,0.2,0,0.3,0,0.5c0,0,0,0,0,0c-0.4,2.1-1.8,4-3.9,5.1c-3.6,1.8-8,0.4-9.8-3.2
		l-0.9-1.7L73.9,66.4v40.7c0,4-3.3,7.3-7.3,7.3c-4,0-7.3-3.3-7.3-7.3V35.6c0-0.2,0-0.4,0-0.5c0-0.1,0-0.2,0-0.3
		c0-0.4,0.1-0.8,0.2-1.1c0-0.1,0.1-0.2,0.1-0.3c0-0.2,0.1-0.3,0.2-0.5c0,0,0,0,0-0.1c0.1-0.2,0.2-0.4,0.3-0.6
		c0.1-0.2,0.2-0.4,0.4-0.6c0.5-0.8,1.2-1.5,2-2c0.8-0.5,1.7-0.9,2.6-1.1c0.2,0,0.5-0.1,0.7-0.1c0.2,0,0.5,0,0.7,0c0.2,0,0.4,0,0.6,0
		c0.1,0,0.2,0,0.3,0c0.4,0,0.7,0.1,1.1,0.2c0.1,0,0.3,0.1,0.4,0.1c0.4,0.1,0.8,0.3,1.2,0.5c0.2,0.1,0.3,0.2,0.5,0.3
		c0.2,0.1,0.5,0.3,0.7,0.5c0.2,0.2,0.4,0.3,0.5,0.5c0.3,0.3,0.6,0.7,0.9,1c0,0,0,0.1,0.1,0.1c0.1,0.2,0.2,0.4,0.3,0.5
		c0,0,0.1,0.1,0.1,0.2l21.2,41.8V34.7c0-4,3.3-7.3,7.3-7.3c2,0,3.8,0.8,5.2,2.2C108.1,30.8,108.9,32.7,108.9,34.7z"/>
	<path id="XMLID_9_" d="M66.6,114.9c-4.3,0-7.8-3.5-7.8-7.8V35.6c0-0.2,0-0.4,0-0.6c0-0.1,0-0.2,0-0.3c0-0.4,0.1-0.8,0.2-1.2
		c0,0,0-0.1,0.1-0.2c0.1-0.3,0.2-0.5,0.2-0.7l0-0.1c0.1-0.2,0.2-0.4,0.3-0.6c0.1-0.2,0.2-0.4,0.4-0.6c0.6-0.8,1.3-1.6,2.1-2.1
		c0.9-0.6,1.8-1,2.8-1.2c0.2-0.1,0.5-0.1,0.8-0.1c0.5-0.1,1-0.1,1.4,0c0,0,0.1,0,0.2,0l0.1,0c0.4,0,0.8,0.1,1.1,0.2
		c0.1,0,0.2,0.1,0.3,0.1l0.2,0c0.5,0.2,0.9,0.3,1.2,0.6c0.2,0.1,0.3,0.2,0.5,0.3c0.2,0.1,0.5,0.3,0.7,0.5c0.2,0.2,0.4,0.3,0.5,0.5
		c0.4,0.4,0.7,0.7,0.9,1.1c0,0.1,0.1,0.1,0.1,0.2c0.1,0.1,0.2,0.3,0.3,0.5c0.1,0.1,0.1,0.1,0.1,0.2l20.2,40V34.7
		c0-4.3,3.5-7.8,7.8-7.8c2.1,0,4,0.8,5.5,2.3c1.5,1.5,2.3,3.4,2.3,5.5v71.4c0,0.2,0,0.4,0,0.6c-0.5,2.4-2,4.4-4.1,5.5
		c-1.9,0.9-4,1.1-6,0.4c-2-0.7-3.6-2-4.5-3.9l-0.9-1.7L74.4,68.5v38.6C74.4,111.4,70.9,114.9,66.6,114.9z M66.6,28.8
		c-0.2,0-0.5,0-0.7,0c-0.2,0-0.5,0.1-0.7,0.1c-0.9,0.2-1.7,0.5-2.4,1c-0.7,0.5-1.3,1.1-1.8,1.8c-0.1,0.2-0.2,0.4-0.3,0.6
		c-0.1,0.2-0.2,0.4-0.3,0.6c-0.1,0.2-0.2,0.4-0.2,0.5l0,0.1c0,0,0,0.1,0,0.1c-0.1,0.4-0.2,0.7-0.2,1.1c0,0.1,0,0.2,0,0.2
		c0,0.2,0,0.4,0,0.5v71.5c0,3.8,3.1,6.8,6.8,6.8c3.8,0,6.8-3.1,6.8-6.8V64.3l22.2,44c0.8,1.6,2.2,2.8,4,3.4c1.7,0.6,3.6,0.4,5.2-0.4
		c1.9-0.9,3.2-2.6,3.6-4.7c0-0.2,0-0.3,0-0.4V34.7c0-1.8-0.7-3.5-2-4.8c-1.3-1.3-3-2-4.8-2c-3.8,0-6.8,3.1-6.8,6.8v41.6L72.6,32.4
		c-0.1-0.2-0.2-0.3-0.3-0.5l0.4-0.4l-0.4,0.3c-0.2-0.3-0.5-0.7-0.8-1c-0.2-0.2-0.3-0.3-0.5-0.4c-0.2-0.2-0.4-0.3-0.6-0.4
		c-0.2-0.1-0.3-0.2-0.4-0.3c-0.3-0.2-0.7-0.3-1.1-0.5l-0.4-0.1c-0.3-0.1-0.6-0.2-1-0.2l-0.1,0c0,0-0.1,0-0.1,0
		C67,28.8,66.8,28.8,66.6,28.8z"/>
</g>
<g id="XMLID_7_">
	<path id="XMLID_3_" class="st0" d="M81.8,35.6c0,2.1-0.9,4.1-2.3,5.5c-1.4,1.4-3.4,2.3-5.5,2.3H49.9v20.4H66c4.3,0,7.8,3.5,7.8,7.8
		c0,2.1-0.9,4.1-2.3,5.5c-1.4,1.4-3.4,2.3-5.5,2.3H49.9v27.2c0,4-3.3,7.3-7.3,7.3c-4,0-7.3-3.3-7.3-7.3V79.4
		c-4.2-0.2-7.5-3.6-7.5-7.8c0-2.1,0.9-4.1,2.3-5.5c1.3-1.3,3.2-2.2,5.2-2.3V43.4c-4.2-0.2-7.5-3.6-7.5-7.8c0-2.1,0.9-4.1,2.3-5.5
		c1.4-1.4,3.4-2.3,5.5-2.3H74C78.3,27.8,81.8,31.4,81.8,35.6z"/>
	<path id="XMLID_4_" d="M42.6,114.4c-4.3,0-7.8-3.5-7.8-7.8V79.9c-4.2-0.4-7.5-4-7.5-8.3c0-2.2,0.9-4.3,2.4-5.9
		c1.4-1.4,3.2-2.2,5.1-2.4V43.9c-4.2-0.4-7.5-4-7.5-8.3c0-2.2,0.9-4.3,2.4-5.9s3.7-2.4,5.9-2.4H74c4.6,0,8.3,3.7,8.3,8.3
		c0,2.2-0.9,4.3-2.4,5.9c-1.6,1.6-3.7,2.4-5.9,2.4H50.4v19.4H66c4.6,0,8.3,3.7,8.3,8.3c0,2.2-0.9,4.3-2.4,5.9
		c-1.6,1.6-3.7,2.4-5.9,2.4H50.4v26.7C50.4,110.9,46.9,114.4,42.6,114.4z M35.6,28.3c-1.9,0-3.8,0.8-5.2,2.1
		c-1.4,1.4-2.1,3.2-2.1,5.1c0,3.9,3.1,7.2,7,7.3l0.5,0v21.4l-0.5,0c-1.8,0.1-3.6,0.8-4.9,2.1c-1.4,1.4-2.1,3.2-2.1,5.1
		c0,3.9,3.1,7.2,7,7.3l0.5,0v27.7c0,3.8,3.1,6.8,6.8,6.8c3.8,0,6.8-3.1,6.8-6.8V78.9H66c1.9,0,3.8-0.8,5.2-2.1
		c1.4-1.4,2.1-3.2,2.1-5.2c0-4-3.3-7.3-7.3-7.3H49.4V42.9H74c1.9,0,3.8-0.8,5.2-2.1c1.4-1.4,2.1-3.2,2.1-5.2c0-4-3.3-7.3-7.3-7.3
		H35.6z"/>
</g>
</svg>
